<?xml version="1.0"?>
<svg xmlns="http://www.w3.org/2000/svg" id="outline" viewBox="0 0 512 512" width="512" height="512"><path d="M429.65723,197.96484l-28-28a7.99926,7.99926,0,0,0-11.28418-.02929l-188,186a7.99874,7.99874,0,0,0-1.834,2.79883l-24,62a8.00031,8.00031,0,0,0,11.42969,9.834l56-32a8.01974,8.01974,0,0,0,1.749-1.35059l184-188A8.00174,8.00174,0,0,0,429.65723,197.96484Zm-62.843,17.78589,17.24414,17.24414-12.54907,12.822-17.44849-17.44848ZM211.17969,375.56885l15.44677,14.48144-27.03173,15.44678Zm28.57959,4.86181-20.228-18.96386L342.68579,239.62231l17.63062,17.63062ZM395.25122,221.55884l-17.062-17.062,17.78052-17.59156,16.77734,16.77735Z"/><path d="M443.06152,232.23145a7.99922,7.99922,0,0,0-8.71875,1.73339l-184,184A8.00066,8.00066,0,0,0,256,431.62207H440a8.00039,8.00039,0,0,0,8-8v-184A8,8,0,0,0,443.06152,232.23145ZM432,415.62207H275.31348L432,258.93555Z"/><path d="M352.60938,386.68359A8,8,0,0,0,360,391.62207h40a8.00039,8.00039,0,0,0,8-8v-40a8.00066,8.00066,0,0,0-13.65723-5.65723l-40,40A8.00028,8.00028,0,0,0,352.60938,386.68359ZM392,362.93555v12.68652H379.31348Z"/><path d="M182.65625,348.05957A8.00221,8.00221,0,0,0,184,343.62207v-121.521a22.21235,22.21235,0,0,0,10.97656-9.22314L207.73,191.62207H312a8.00221,8.00221,0,0,0,4.4375-1.34375l21.98438-14.65625H368v-16H338.42188L316.4375,144.96582A8.00221,8.00221,0,0,0,312,143.62207H208.24585l-.48511-1.94043A7.99866,7.99866,0,0,0,200,135.62207h-1.45386l-5.12134-25.36328a17.77629,17.77629,0,0,0-34.8496,0l-5.12134,25.36328H152a7.99866,7.99866,0,0,0-7.76074,6.05957l-8,32a7.97976,7.97976,0,0,0-.22949,1.94043H136v168a8.00221,8.00221,0,0,0,1.34375,4.4375L152,370.044v29.57812h16V370.044Zm-1.39941-143.41406a6.12941,6.12941,0,0,1-10.5127,0l-18.17969-30.29785,5.68164-22.72559h35.50782l5.68164,22.72559Zm128.32128-45.02344,12,8-12,8H215.99023a7.97976,7.97976,0,0,0-.22949-1.94043l-3.51489-14.05957ZM174.25879,113.4248a1.77634,1.77634,0,0,1,3.48242,0l4.48193,22.19727H169.77686Zm-17.23438,99.45313A22.20907,22.20907,0,0,0,168,222.10107V341.2002l-8,12-8-12V204.50439Z"/><circle cx="176" cy="167.62183" r="8"/><path d="M463.04785,63.69922H103.79492l-.01855-24.083a8.0004,8.0004,0,0,0-8-7.99414h-.00879l-32,.03418A48.05376,48.05376,0,0,0,15.81934,79.70508l.27539,352.333v.01367A48.05177,48.05177,0,0,0,64.09277,480h.05176l400.35254-.35645a31.99993,31.99993,0,0,0,31.97168-32.04882l-.4209-350.94239A33.0469,33.0469,0,0,0,463.04785,63.69922ZM31.81934,79.69043A32.03667,32.03667,0,0,1,63.78516,47.65625l23.99707-.02539.26367,336.34375L64.043,384a47.80561,47.80561,0,0,0-31.97656,12.27734ZM475.79688,458.94336a15.895,15.895,0,0,1-11.31348,4.70019L64.12891,464h-.03418a32,32,0,0,1-.03418-64l32-.03418a7.99978,7.99978,0,0,0,7.99121-8.00586l-.24414-312.26074H463.04785a17.02432,17.02432,0,0,1,17,16.97461l.4209,350.94336A15.89684,15.89684,0,0,1,475.79688,458.94336Z"/></svg>
